<svg width="18" height="18" viewBox="0 0 18 18" fill="none" xmlns="http://www.w3.org/2000/svg">
<path fill-rule="evenodd" clip-rule="evenodd" d="M2.79361 1.25725C2.40309 0.866725 1.76992 0.866724 1.3794 1.25725L1.25725 1.3794C0.866724 1.76992 0.866725 2.40309 1.25725 2.79361L7.46377 9.00013L1.25725 15.2067C0.866725 15.5972 0.866724 16.2303 1.25725 16.6209L1.3794 16.743C1.76992 17.1335 2.40309 17.1335 2.79361 16.743L9.00013 10.5365L15.2067 16.743C15.5972 17.1335 16.2303 17.1335 16.6209 16.743L16.743 16.6209C17.1335 16.2303 17.1335 15.5972 16.743 15.2067L10.5365 9.00013L16.743 2.79361C17.1335 2.40309 17.1335 1.76992 16.743 1.3794L16.6209 1.25725C16.2303 0.866724 15.5972 0.866725 15.2067 1.25725L9.00013 7.46377L2.79361 1.25725Z" fill="white"/>
</svg>
